<svg xmlns="http://www.w3.org/2000/svg" viewBox="0 0 500 500"><g id="freepik--background-simple--inject-196"><path d="M119.54,302.28C168.79,340.52,283.92,377.52,388.4,335c0,0,67.79-28.79,68-97.36.22-63.43-69.59-107.19-151.58-77.76-66.91,24-90-49.09-150.49-65.61C55.71,67.32,7.69,215.41,119.54,302.28Z" style="fill:#180D0D"></path><g style="opacity:0.9"><path d="M119.54,302.28C168.79,340.52,283.92,377.52,388.4,335c0,0,67.79-28.79,68-97.36.22-63.43-69.59-107.19-151.58-77.76-66.91,24-90-49.09-150.49-65.61C55.71,67.32,7.69,215.41,119.54,302.28Z" style="fill:#fff"></path></g></g><g id="freepik--Shadow--inject-196"><ellipse cx="253.61" cy="453.47" rx="198.87" ry="5.45" style="fill:#f5f5f5"></ellipse></g><g id="freepik--Kitchen--inject-196"><rect x="336.81" y="277.42" width="91.72" height="172.08" style="fill:#180D0D"></rect><rect x="331.64" y="329.93" width="5.17" height="5.17" style="fill:#263238"></rect><rect x="331.64" y="286.62" width="5.17" height="5.17" style="fill:#263238"></rect><rect x="336.81" y="335.1" width="79.99" height="0.89" style="opacity:0.2"></rect><rect x="415.91" y="277.42" width="0.89" height="172.08" style="fill:#263238"></rect><path d="M428.53,238.45h0a0,0,0,0,1,0,0v39a0,0,0,0,1,0,0H416.8a0,0,0,0,1,0,0V250.18A11.73,11.73,0,0,1,428.53,238.45Z" style="fill:#180D0D"></path><path d="M428.53,238.45h0a0,0,0,0,1,0,0v39a0,0,0,0,1,0,0H416.8a0,0,0,0,1,0,0V250.18A11.73,11.73,0,0,1,428.53,238.45Z" style="fill:#fff;opacity:0.5"></path><rect x="346.64" y="274.44" width="25.96" height="2.98" style="fill:#263238"></rect><rect x="383.64" y="274.44" width="25.96" height="2.98" style="fill:#263238"></rect><rect x="348.64" y="449.5" width="11.03" height="3.97" style="fill:#263238"></rect><rect x="402.64" y="449.5" width="11.03" height="3.97" style="fill:#263238"></rect></g><g id="freepik--Table--inject-196"><path d="M114.51,276.75h52a1.82,1.82,0,0,0,1.73-2.39L156.91,240a1.83,1.83,0,0,0-1.73-1.26H103.23a1.82,1.82,0,0,0-1.73,2.39l11.28,34.37A1.84,1.84,0,0,0,114.51,276.75Z" style="fill:#263238"></path><path d="M136.08,259.53c.36,2.37-1,4.28-2.94,4.28s-3.89-1.91-4.26-4.28,1-4.27,2.94-4.27S135.71,257.17,136.08,259.53Z" style="fill:#fff;opacity:0.30000000000000004"></path><path d="M185,276l1.1,3.31a1.55,1.55,0,0,1-1.48,2H115.78a1.54,1.54,0,0,1-1.47-1.06L112.88,276Z" style="fill:#263238"></path><g style="opacity:0.30000000000000004"><path d="M185,276l1.1,3.31a1.55,1.55,0,0,1-1.48,2H115.78a1.54,1.54,0,0,1-1.47-1.06L112.88,276Z" style="fill:#fff;opacity:0.4"></path></g><rect x="83.31" y="281.33" width="127.13" height="10.46" style="fill:#180D0D"></rect><rect x="144.25" y="291.79" width="5.26" height="157.71" style="fill:#263238"></rect><path d="M183.66,453.42H110.12a14.2,14.2,0,0,1,12.08-6.75h49.36a14.22,14.22,0,0,1,12.1,6.76Z" style="fill:#180D0D"></path></g><g id="freepik--Shelf--inject-196"><rect x="66.82" y="149.26" width="92.12" height="9.59" style="fill:#180D0D"></rect><polygon points="74.17 158.85 78.39 168.36 84.61 168.36 84.61 158.85 74.17 158.85" style="fill:#180D0D"></polygon><polygon points="74.17 158.85 78.39 168.36 84.61 168.36 84.61 158.85 74.17 158.85" style="fill:#180D0D"></polygon><polygon points="74.17 158.85 78.39 168.36 84.61 168.36 84.61 158.85 74.17 158.85" style="opacity:0.30000000000000004"></polygon><polygon points="151.59 158.85 147.37 168.36 141.15 168.36 141.15 158.85 151.59 158.85" style="fill:#180D0D"></polygon><polygon points="151.59 158.85 147.37 168.36 141.15 168.36 141.15 158.85 151.59 158.85" style="opacity:0.30000000000000004"></polygon><path d="M95.38,125.38V107.49a.44.44,0,1,0-.87,0v17.89Z" style="fill:#180D0D"></path><g style="opacity:0.30000000000000004"><path d="M95.38,125.38V107.49a.44.44,0,1,0-.87,0v17.89Z"></path></g><polygon points="87.7 145.94 88.14 147.56 88.23 147.9 88.6 149.25 101.29 149.25 101.66 147.9 101.75 147.56 102.19 145.94 102.28 145.59 106.63 129.48 106.72 129.14 107.16 127.52 107.25 127.17 107.73 125.38 82.16 125.38 82.64 127.17 82.73 127.52 83.17 129.14 83.26 129.48 87.61 145.59 87.7 145.94" style="fill:#263238"></polygon><path d="M93.4,113.65a1.23,1.23,0,0,0,1.31-.49,1.06,1.06,0,0,0,.2-.46.77.77,0,0,0,0-.27,1.25,1.25,0,0,0-.28-.79c-1.66-2-10-11.67-13.94-7.63C76,108.9,88.83,112.54,93.4,113.65Z" style="fill:#180D0D"></path><g style="opacity:0.30000000000000004"><path d="M86,108l8.71,5.15a1.06,1.06,0,0,0,.2-.46l-8.65-5.12a.25.25,0,0,0-.34.09A.24.24,0,0,0,86,108Z"></path></g><path d="M94.94,117.22a1.24,1.24,0,0,0,0,.27,1.28,1.28,0,0,0,.21.46,1.27,1.27,0,0,0,1.31.49c4.57-1.12,17.41-4.76,12.67-9.64-3.91-4-12.27,5.62-13.93,7.62A1.31,1.31,0,0,0,94.94,117.22Z" style="fill:#180D0D"></path><path d="M95,117.49a1.28,1.28,0,0,0,.21.46l8.71-5.15a.27.27,0,0,0,.08-.35.24.24,0,0,0-.34-.08Z" style="opacity:0.30000000000000004"></path><path d="M94,107.41a1.29,1.29,0,0,0,.38.76,1.57,1.57,0,0,0,.21.17,1.45,1.45,0,0,0,.48.17,1.28,1.28,0,0,0,1.26-.62c2.34-4.07,8.56-15.88,1.76-15.82C92.45,92.11,93.68,104.84,94,107.41Z" style="fill:#180D0D"></path><g style="opacity:0.30000000000000004"><path d="M94.58,108.34a1.45,1.45,0,0,0,.48.17l2.28-9.86a.26.26,0,0,0-.19-.3.25.25,0,0,0-.3.19Z"></path></g><path d="M93.4,123.92a1.23,1.23,0,0,0,1.31-.49,1.06,1.06,0,0,0,.2-.46.77.77,0,0,0,0-.27,1.25,1.25,0,0,0-.28-.79c-1.66-2-10-11.67-13.94-7.63C76,119.17,88.83,122.81,93.4,123.92Z" style="fill:#180D0D"></path><g style="opacity:0.30000000000000004"><path d="M86,118.28l8.71,5.15a1.06,1.06,0,0,0,.2-.46l-8.65-5.12a.25.25,0,0,0-.34.09A.24.24,0,0,0,86,118.28Z"></path></g><path d="M112.78,142.27h-.92v-1.38h34.85a4.19,4.19,0,0,1,0,8.37H111.86v-1.19h.92Z" style="fill:#180D0D"></path><path d="M112.54,142.27v5.8h32a2.86,2.86,0,0,0,2.82-2.9,2.94,2.94,0,0,0-.82-2.06,2.81,2.81,0,0,0-2-.84Z" style="fill:#fff"></path><path d="M112.54,143.73v.89h31.15a.44.44,0,0,0,.44-.44h0a.45.45,0,0,0-.44-.45Z" style="fill:#e6e6e6"></path><path d="M112.54,145.92v.88h31.15a.44.44,0,0,0,.44-.44h0a.44.44,0,0,0-.44-.44Z" style="fill:#e6e6e6"></path><path d="M112.78,133.9h-.92v-1.38h34.85a4.19,4.19,0,0,1,0,8.37H111.86V139.7h.92Z" style="fill:#180D0D"></path><g style="opacity:0.30000000000000004"><path d="M112.78,133.9h-.92v-1.38h34.85a4.19,4.19,0,0,1,0,8.37H111.86V139.7h.92Z"></path></g><path d="M112.54,133.9v5.8h32a2.86,2.86,0,0,0,2.82-2.9,2.92,2.92,0,0,0-.82-2.05,2.78,2.78,0,0,0-2-.85Z" style="fill:#fff"></path><path d="M112.54,135.37v.88h31.15a.44.44,0,0,0,.44-.44h0a.44.44,0,0,0-.44-.44Z" style="fill:#e6e6e6"></path><path d="M112.54,137.55v.89h31.15a.45.45,0,0,0,.44-.45h0a.44.44,0,0,0-.44-.44Z" style="fill:#e6e6e6"></path></g><g id="freepik--speech-bubble--inject-196"><path d="M323.86,129.9a16,16,0,0,1-23.49,14.18l-6,4,2.21-6.81a16,16,0,1,1,27.27-11.4Z" style="fill:#180D0D"></path><g style="opacity:0.5"><path d="M323.86,129.9a16,16,0,0,1-23.49,14.18l-6,4,2.21-6.81a16,16,0,1,1,27.27-11.4Z" style="fill:#fff"></path></g><circle cx="307.84" cy="129.9" r="2" style="fill:#fff"></circle><circle cx="301.09" cy="129.9" r="2" style="fill:#fff"></circle><circle cx="314.59" cy="129.9" r="2" style="fill:#fff"></circle></g><g id="freepik--Character--inject-196"><path d="M240.44,174.2l-.15.29-6.66,13.07c-3.91-1.87-7.71-3.88-11.45-6-2.18-1.24-4.34-2.52-6.5-3.85-2.94-1.81-5.82-3.7-8.78-5.87l-1.12-.82-1.16-.94-.59-.49-.71-.62c-.47-.42-.8-.77-1.2-1.17-1.41-1.48-2.54-2.87-3.65-4.27-4.36-5.6-8.08-11.23-11.77-16.95S179.58,135,176.25,129.1l6.13-4.2,12.84,15.42c4.26,5.09,8.56,10.24,12.91,14.87,1.07,1.14,2.18,2.26,3.17,3.12.22.17.49.42.66.53l.26.18.42.26.88.54,1,.58c2.64,1.53,5.55,3,8.44,4.56,4.48,2.35,9.06,4.68,13.56,7.09,1.19.64,2.38,1.28,3.55,1.93Z" style="fill:#180D0D"></path><path d="M240.05,174l.24.51-6.66,13.07c-3.91-1.87-7.71-3.88-11.45-6,1.69-7.68,10-9.21,14.32-9.48Z" style="opacity:0.2"></path><path d="M177.33,131s-6.31-3.07-9.43-4.39c-2.84-1.2-6.35-4-5.93-5.83,1.64-7,10.35-1.33,10.35-1.33l10,5.32C182.53,126.88,180.08,129.76,177.33,131Z" style="fill:#ffb573"></path><path d="M137.34,114.89l-.9-.26-.39,1.34,34,9.83a4.25,4.25,0,0,0,2.35-8.17l-34-9.82-.34,1.16.9.26Z" style="fill:#180D0D"></path><path d="M137.1,114.82l1.64-5.66,31.19,9a2.9,2.9,0,0,1,1.94,3.62,3,3,0,0,1-1.38,1.77,2.82,2.82,0,0,1-2.19.27Z" style="fill:#fff"></path><path d="M137.52,113.39l.25-.86,30.39,8.78a.44.44,0,0,1,.3.55h0a.45.45,0,0,1-.55.31Z" style="fill:#d6d6d6"></path><path d="M138.13,111.26l.25-.86,30.39,8.78a.44.44,0,0,1,.31.55h0a.45.45,0,0,1-.56.31Z" style="fill:#d6d6d6"></path><path d="M182.33,124.77s-5.21-5.77-6.69-6.23-9.18.39-8.43,1.42,6.69,2.54,6.69,2.54l2.84,2.29Z" style="fill:#ffb573"></path><path d="M277.19,179.91l-1.07-.46c-1.73-.71-3.46-1.48-5.18-2.23l-1.5-.66-2.05-.89-5.88,12.52-.07.15c4.62,2.24,9.23,4.27,14,6.11l1.74.66c.53.21,1.07.4,1.61.6l1.17.42c2.64,1,5.33,1.83,8.12,2.63l.06,0,.23.06Zm.52-12.93c.11.18.22.36.34.54a1.81,1.81,0,0,0,.31,0c1.48.94,5.26-2.52,5.48-4.8-.46-.49-.92-1-1.39-1.46-.16-.17-.32-.35-.49-.52l-3.89,3-1.57,1.23a.41.41,0,0,0,.07.11Z" style="fill:#180D0D"></path><path d="M307.84,194.24c0,.23,0,.46,0,.7l-.05.37a5.59,5.59,0,0,1-.12.56c-.05.18-.11.37-.17.54s-.14.37-.27.66a6.5,6.5,0,0,1-1,1.45,6.58,6.58,0,0,1-1.57,1.28,6.7,6.7,0,0,1-1.62.65l-.52.12-.35.06a16,16,0,0,1-4,.15c-1.1-.08-2.09-.22-3-.38-1.9-.32-3.65-.73-5.35-1.17-.47-.13-.93-.25-1.39-.39l-11.15-18.93c2.57,1.11,5.13,2.2,7.69,3.25,1.4.57,2.8,1.13,4.19,1.66L287,181.53q-4.48-6.94-8.91-14a1.81,1.81,0,0,0,.31,0c1.48.94,5.26-2.52,5.48-4.8q5.84,6.18,11.35,12.64c2.15,2.49,4.25,5,6.33,7.65,1.05,1.31,2.07,2.64,3.09,4.07.52.72,1,1.45,1.58,2.32a15.51,15.51,0,0,1,.9,1.64c.1.2.19.41.31.72a7.35,7.35,0,0,1,.38,1.54A5.93,5.93,0,0,1,307.84,194.24Z" style="fill:#180D0D"></path><path d="M288.85,199.71l-.1-.12-.7-.83-12.47-14.88-3.31-3.95-2.83-3.37,1.5.66c1.72.75,3.45,1.52,5.18,2.23l1.07.46,11.15,18.93Z" style="opacity:0.2"></path><path d="M283.84,162.77c-.22,2.28-4,5.74-5.48,4.8a1.81,1.81,0,0,1-.31,0,2.76,2.76,0,0,1-.65-.18,6.58,6.58,0,0,1-1.3-.65,8.06,8.06,0,0,1-3-3.08,1.49,1.49,0,0,1-.13-.37c-.3-1.46-.45-3.1-.75-4.38a.57.57,0,0,1,.19-.63,1.17,1.17,0,0,1,1.09,0h0a2,2,0,0,1,.57.33.13.13,0,0,1,.07.06.64.64,0,0,1,.17.16A2.56,2.56,0,0,1,275,160c.44,2.21,3.92,1.75,3.92,1.75l1.42-4.07.49-1.42h0l.91-2.62a.45.45,0,0,1,.07.07c0,.07.07.14.1.2.56,1.31,1.51,6.85,1.87,8.17A1.56,1.56,0,0,1,283.84,162.77Z" style="fill:#ffb573"></path><path d="M282.3,161.55l-5,5.95a.49.49,0,0,1-.89-.16L270.64,154a1.51,1.51,0,0,1,.19-1.44l5-6c.3-.35.7-.27.89.17l5.75,13.31A1.51,1.51,0,0,1,282.3,161.55Z" style="fill:#263238"></path><g style="opacity:0.30000000000000004"><path d="M281.05,160.3,277,165.14c-.16.18-.36.14-.46-.09l-5.05-11.7a.78.78,0,0,1,.1-.74l4.1-4.84c.15-.18.36-.14.46.09l5,11.69A.77.77,0,0,1,281.05,160.3Z" style="fill:#fff"></path></g><path d="M281.84,153.75a3.05,3.05,0,0,0-2.51-2c-.84,0-1.17,3.73-.93,4.61.49,1.82,1.8-1.57,1.8-1.57l.73,1.67C281.69,155.61,282.42,154.84,281.84,153.75Z" style="fill:#ffb573"></path><path d="M280.48,150.41a3.62,3.62,0,0,0-2.25-1.41c-.84,0-1.24,3.51-1,4.38.49,1.82,1.88-1.34,1.88-1.34l1.76,1.91C281.63,153.09,281.29,151.89,280.48,150.41Z" style="fill:#ffb573"></path><path d="M279.11,148.64c-.11-.3-.79-1.77-1.63-1.75s-1.53,2.77-1.29,3.65c.49,1.82,1.88-1.34,1.88-1.34l1.76,1.91C280.13,150.63,279.92,150.12,279.11,148.64Z" style="fill:#ffb573"></path><path d="M336.8,226.09l-2.14,6.71q-10.43-2.6-20.8-5.35c-3.46-.93-6.92-1.87-10.4-2.86s-6.92-2-10.56-3.25c-.48-.18-.92-.33-1.42-.53l-.75-.3-.85-.39a12.35,12.35,0,0,1-2.33-1.44l-.8-.65c-.21-.19-.43-.37-.64-.57-1.56-1.48-2.75-2.84-4-4.22l-1.41-1.58-1.1-1.27c-1.34-1.54-2.65-3.08-4-4.62L275,205c-4.63-5.51-9.14-11-13.62-16.67l11.9-9.13c4.21,5.64,8.48,11.33,12.77,16.9,2.15,2.78,4.31,5.55,6.49,8.19,1.07,1.31,2.21,2.63,3.15,3.69.11.11.2.24.31.37l.42.47h0l.46.26c.3.18.68.37,1,.55,2.93,1.48,6.19,2.92,9.4,4.32s6.49,2.78,9.77,4.15C323.59,220.81,330.2,223.48,336.8,226.09Z" style="fill:#180D0D"></path><path d="M280.69,211.66l-1.1-1.27c-1.34-1.54-2.65-3.08-4-4.62l-.4-20.39c.22.6,1.68,7.11,4,11.19C282.39,202.16,282.91,208.59,280.69,211.66Z" style="opacity:0.2"></path><path d="M334.66,232.8A117.67,117.67,0,0,0,346.48,234c3.33,0,10.27-3.62,9.45-4.87s-9.49-2.67-9.49-2.67l-11.11-1C334,227.12,333.05,230.3,334.66,232.8Z" style="fill:#ffb573"></path><rect x="339.91" y="228.33" width="22.56" height="2.24" transform="translate(5.57 -8.31) rotate(1.37)" style="fill:#263238"></rect><path d="M360,228.93H392.5a0,0,0,0,1,0,0v1.17a7,7,0,0,1-7,7H367a7,7,0,0,1-7-7v-1.17a0,0,0,0,1,0,0Z" transform="matrix(1, 0.02, -0.02, 1, 5.66, -8.91)" style="fill:#263238"></path><path d="M374.73,226.8s-7.17-5.75-1.5-11,5.83-9.33,1.5-13.33c0,0,6.5,3,8.83,9.15S374.56,222.59,374.73,226.8Z" style="fill:#180D0D"></path><path d="M374.73,226.8s-7.17-5.75-1.5-11,5.83-9.33,1.5-13.33c0,0,6.5,3,8.83,9.15S374.56,222.59,374.73,226.8Z" style="fill:#fff;opacity:0.8"></path><path d="M335.33,225.49s7.39-2,8.87-1.55,7.36,5.25,6.19,5.7-6.88-1.5-6.88-1.5l-3.58.37Z" style="fill:#ffb573"></path><polygon points="269.26 433.81 271.67 445.32 277.73 445.32 278.39 433.81 269.26 433.81" style="fill:#ffb573"></polygon><path d="M295.05,453.47c-.2-3.76-1.81-4.88-3.84-5s-9.58-2.67-9.58-2.67-1.49-2.38-2.87-2.86-2.76.93-2.76.93l-3.79-.46s-1.08-1.72-1.92-.22c-1.29,2.33-1.36,8.77-1.3,10.28Z" style="fill:#180D0D"></path><path d="M294.59,452.49l-4.72,0-20.67-.1c-.26,0-.2-.41.06-.4h1.4l0-.06a3.76,3.76,0,0,0-1.23-5.45c-.21-.12.06-.47.26-.34a4.09,4.09,0,0,1,1.36,5.85H274l20.66.11C294.92,452.09,294.85,452.49,294.59,452.49Z"></path><path d="M280.44,447.43c1.12-1.27,2.7-1.63,3.81-.67.18.15.44-.2.26-.35-1.28-1.09-3.12-.62-4.38.81-.19.21.12.41.31.21Z" style="fill:#fff"></path><path d="M282.55,448.1c1.12-1.27,2.7-1.62,3.81-.67.18.15.44-.19.27-.35-1.28-1.09-3.12-.61-4.39.82-.18.21.13.41.31.2Z" style="fill:#fff"></path><path d="M284.74,448.77c1.12-1.26,2.7-1.62,3.81-.67.18.15.44-.19.26-.34-1.27-1.1-3.12-.62-4.38.81-.19.21.12.41.31.2Z" style="fill:#fff"></path><polygon points="205.81 423.36 202.18 434.96 208.07 437.9 213.78 427.81 205.81 423.36" style="fill:#ffb573"></polygon><path d="M219.24,453.47c1.65-3.38.79-5.14-.92-6.24s-7.06-7-7.06-7-.15-2.8-1.11-3.9-2.88-.53-2.88-.53l-3.87-2.48s0-2.5-1.22-1.12c-1.74,2-4.39,7.47-5.07,8.82Z" style="fill:#180D0D"></path><path d="M219.56,452.09l-4.07-2.23-17.77-9.72c-.23-.12,0-.46.24-.34l1.2.66.05,0a4.06,4.06,0,0,0,1.47-5.59c-.13-.21.26-.41.38-.2a4.42,4.42,0,0,1-1.54,6L202,442l17.77,9.72C220,451.87,219.78,452.21,219.56,452.09Z"></path><path d="M209.42,441.07c1.59-.56,3.15-.1,3.66,1.27.08.22.47.05.39-.17-.58-1.58-2.42-2.06-4.22-1.43-.27.09-.09.42.17.33Z" style="fill:#fff"></path><path d="M210.94,442.69c1.59-.56,3.15-.1,3.65,1.27.09.22.48.05.4-.17-.58-1.58-2.42-2.06-4.22-1.43-.27.09-.09.42.17.33Z" style="fill:#fff"></path><path d="M212.52,444.34c1.59-.56,3.15-.1,3.66,1.27.08.22.47.05.39-.17-.58-1.58-2.42-2.06-4.22-1.43-.27.09-.09.42.17.33Z" style="fill:#fff"></path><path d="M249.28,283a393.94,393.94,0,0,0,6.5,45.92q1.62,8.41,3.74,18c-5.71,36.85,10,90.09,10,90.09l9.36-.21s3.18-59.5,3.13-90.65c-.08-51-4.66-99.65-4.66-99.65l-25.46-.1S247.19,254,249.28,283Z" style="fill:#263238"></path><path d="M249.28,283a393.94,393.94,0,0,0,6.5,45.92c6-20.41-2.18-64-2.18-64Z" style="opacity:0.2"></path><polygon points="279.83 438.96 280.26 434.96 267.79 434.96 268.36 438.96 279.83 438.96" style="fill:#263238"></polygon><path d="M224.93,245.4l-.54,102.17c-6.74,7.3-20.87,77.68-20.87,77.68l10.88,5.94s29.73-67.93,33.82-78.42S258,265,258,265l-6.91-16.76Z" style="fill:#263238"></path><polygon points="215.13 433.61 217.07 430.09 202.66 422.72 201.16 426.46 215.13 433.61" style="fill:#263238"></polygon><path d="M278.25,250c0,4.65-34.13,6.85-54.44.15.34-1.26.83-3.46,1.12-4.73.15-.59.28-1.2.41-1.83q.63-3,1.06-6.65c0-.1,0-.22,0-.33a136.1,136.1,0,0,0,.83-14.08c0-1.33,0-2.7,0-4.1,0-1.73-.08-3.5-.17-5.33a204.61,204.61,0,0,0-2.95-26.44,10.91,10.91,0,0,1,10-12.79c1.74-.13,3.57-.21,5.44-.24s3.67-.06,5.41-.06a108.32,108.32,0,0,1,14.19.67l1.08.14c1.77.23,3.56.52,5.3.81,7.51,1.3,10.75,6.5,11,15.5.29,10,7.88,16.23-1.72,23C273.61,222.15,278.25,236.88,278.25,250Z" style="fill:#180D0D"></path><path d="M227.28,222.51c0-1.33,0-2.7,0-4.1,0-1.73-.08-3.5-.17-5.33L235,197.16Z" style="opacity:0.2"></path><path d="M236.68,189.53l-10.13,15.26c-.16-1.83-.34-3.7-.57-5.59v0Z" style="opacity:0.2"></path><path d="M245,173.55c4.81,8.45,16.12,13.51,16.12,13.51,1.53-3.78,1-9.85-.85-12.7l-1.08-.14A108.32,108.32,0,0,0,245,173.55Z" style="fill:#ffb573"></path><path d="M274.17,158.61s5.69-7.81.74-15.19-13-4.31-13-4.31Z" style="fill:#263238"></path><path d="M260.38,176.87a1.36,1.36,0,0,0,.18.39c1.63,2.58-.14,4.94-3,4.73a5.63,5.63,0,0,1-.81-.11,4.89,4.89,0,0,1-2.64-1.48h0a62.45,62.45,0,0,0-7-6.43c4.23-2.27,5.77-10.32,6.16-15.35l6.57,8.36,1.23,1.82a15.22,15.22,0,0,0-1.42,3.23A5.19,5.19,0,0,0,260.38,176.87Z" style="fill:#ffb573"></path><g style="opacity:0.2"><path d="M259.68,172a15.22,15.22,0,0,1,1.42-3.23L259.87,167l-4.13.09A9.74,9.74,0,0,0,259.68,172Z"></path></g><path d="M252.1,149.64c-.66,8.27-1.11,11.75,2.36,16.53,5.22,7.19,15.32,6.15,18.39-1.76,2.76-7.13,3.37-19.45-4-23.81s-16.05.78-16.71,9Z" style="fill:#ffb573"></path><path d="M253.92,155.05c-4.15-1.1-2.52-5.38-2.52-5.38l6.11,1S258.06,156.15,253.92,155.05Z" style="fill:#263238"></path><path d="M270.65,141.36s-.11,4.58-5.71,4.82-5.19,8.82-11.4,7.22c-7.67-2-4.76-8.52-2.91-11.36C251.8,140.23,264.35,129.4,270.65,141.36Z" style="fill:#263238"></path><path d="M262.19,138s.12-10.25-8.85-11.56c-8.25-1.21-11.42,6.46-11.13,15.9.36,11.4-8,8.43-8,8.43a10.55,10.55,0,0,0,9,6.21C258.47,158.41,262.19,138,262.19,138Z" style="fill:#263238"></path><path d="M251.57,140.92a.23.23,0,0,1-.14,0,.24.24,0,0,1-.07-.34,12.44,12.44,0,0,1,10.6-5.08.25.25,0,0,1,.24.26.23.23,0,0,1-.26.24,11.92,11.92,0,0,0-10.16,4.85A.26.26,0,0,1,251.57,140.92Z" style="fill:#180D0D"></path><path d="M269.4,162.38s-4-1.82-4.91-3.57c0,0-.59,3.14,1.52,4.29A2.54,2.54,0,0,0,269.4,162.38Z" style="fill:#fff"></path><path d="M265.7,153.33c-.09.67.19,1.26.62,1.32s.87-.43,1-1.1-.18-1.26-.62-1.32-.86.43-1,1.1Z" style="fill:#263238"></path><path d="M272.48,154.43c-.09.67.19,1.26.62,1.32s.87-.43,1-1.09-.18-1.26-.62-1.32-.86.43-1,1.09Z" style="fill:#263238"></path><path d="M273.25,153.35l1.66-.24s-1,1.14-1.66.24Z" style="fill:#263238"></path><path d="M270,154.3s.91,1.93,1.94,3.64a1,1,0,0,1-.54,1.49,10.21,10.21,0,0,1-2.17.41Z" style="fill:#ed893e"></path><path d="M248.39,154.91a5.34,5.34,0,0,0,2.82,3.35c1.75.76,2.94-1.11,2.71-3.21-.2-1.89-1.36-4.56-3.24-4.42s-2.88,2.37-2.29,4.28Z" style="fill:#ffb573"></path><path d="M252.76,157.07a1.12,1.12,0,1,1-1.12-1.12A1.12,1.12,0,0,1,252.76,157.07Z" style="fill:#fff"></path><path d="M263.88,150.66a.38.38,0,0,0,.28-.12,3.12,3.12,0,0,1,2.67-1,.41.41,0,0,0,.46-.32.4.4,0,0,0-.32-.46,3.9,3.9,0,0,0-3.38,1.27.4.4,0,0,0,0,.56.43.43,0,0,0,.28.11Z" style="fill:#263238"></path><path d="M275.6,151.86a.4.4,0,0,0,.34-.64,3.91,3.91,0,0,0-3.27-1.54.4.4,0,0,0-.36.43.41.41,0,0,0,.44.36,3.12,3.12,0,0,1,2.57,1.24.39.39,0,0,0,.28.15Z" style="fill:#263238"></path><path d="M266.47,152.24l1.66-.23s-1,1.13-1.66.23Z" style="fill:#263238"></path><path d="M240,185.56c-2.86,7.08-6,13.92-9.37,20.75-1.68,3.42-3.44,6.8-5.3,10.18s-3.81,6.71-6.13,10.17l-.92,1.31c-.31.43-.65.89-1,1.35s-.78,1-1.21,1.43c-.18.23-.52.55-.78.82l-.42.41-.27.24c-1.35,1.15-2.74,2.38-4.12,3.62l-8.39,7.42c-5.62,5-11.31,9.87-17.18,14.6l-4.9-4.72c4.53-6.06,9.26-11.9,14.11-17.67,2.43-2.88,4.88-5.74,7.4-8.58,1.27-1.42,2.53-2.83,3.88-4.27.08-.09.19-.2.23-.26l.06-.09a2.63,2.63,0,0,0,.16-.23c.17-.24.32-.45.53-.78s.39-.59.59-.94.41-.68.62-1c1.67-2.89,3.24-6.2,4.83-9.45s3.1-6.63,4.64-10c3-6.71,6.08-13.53,9.17-20.2Z" style="fill:#180D0D"></path><path d="M181,251.77s6,2.88,3.85,6.11-6.85,4.7-8.54,7.36-5.07,9.63-5.82,9.58,1.54-10.38,2.32-12.18,4.38-6,4.38-6Z" style="fill:#ffb573"></path><path d="M172.3,264.06s-2.3,3.36-2.43,4.85a29.4,29.4,0,0,1-1.12,5.89c-.44.88,1.6.27,2.31-2.6A77.44,77.44,0,0,0,172.3,264.06Z" style="fill:#ffb573"></path><path d="M184.44,256.46a9.44,9.44,0,0,1-1.48,4,29.37,29.37,0,0,0-3.1,5.87c-.64,1.74-2.35,2.37-2.82,1.6s1.15-3.91,1.75-6.49S184.44,256.46,184.44,256.46Z" style="fill:#ffb573"></path></g></svg>
